<?xml version="1.0" encoding="UTF-8"?>
<svg xmlns="http://www.w3.org/2000/svg" xmlns:xlink="http://www.w3.org/1999/xlink" width="50pt" height="50pt" viewBox="0 0 50 50" version="1.1">
<g id="surface1">
<path style=" stroke:none;fill-rule:nonzero;fill:#FFFFFF;fill-opacity:1;" d="M 24.800781 1.984375 C 12.210938 1.984375 1.984375 12.210938 1.984375 24.800781 C 1.984375 28.847656 3.09375 32.625 4.945313 35.917969 L 2.023438 46.359375 C 1.925781 46.699219 2.019531 47.066406 2.261719 47.316406 C 2.511719 47.574219 2.871094 47.671875 3.214844 47.589844 L 14.097656 44.890625 C 17.296875 46.601563 20.925781 47.617188 24.800781 47.617188 C 37.390625 47.617188 47.617188 37.390625 47.617188 24.800781 C 47.617188 12.210938 37.390625 1.984375 24.800781 1.984375 Z M 24.800781 3.96875 C 36.320313 3.96875 45.636719 13.285156 45.636719 24.800781 C 45.636719 36.320313 36.320313 45.636719 24.800781 45.636719 C 21.109375 45.636719 17.652344 44.675781 14.644531 42.988281 C 14.421875 42.867188 14.167969 42.832031 13.917969 42.890625 L 4.390625 45.253906 L 6.945313 36.136719 C 7.023438 35.878906 6.984375 35.597656 6.847656 35.363281 C 5.023438 32.265625 3.96875 28.660156 3.96875 24.800781 C 3.96875 13.285156 13.285156 3.96875 24.800781 3.96875 Z M 16.507813 12.898438 C 15.871094 12.898438 14.964844 13.132813 14.21875 13.933594 C 13.773438 14.417969 11.90625 16.242188 11.90625 19.4375 C 11.90625 22.773438 14.21875 25.648438 14.496094 26.023438 C 14.472656 25.988281 14.855469 26.542969 15.363281 27.203125 C 15.871094 27.863281 16.585938 28.734375 17.480469 29.675781 C 19.269531 31.558594 21.78125 33.738281 24.90625 35.066406 C 26.34375 35.679688 27.480469 36.050781 28.335938 36.320313 C 29.929688 36.824219 31.382813 36.746094 32.472656 36.582031 C 33.285156 36.464844 34.183594 36.070313 35.070313 35.511719 C 35.957031 34.949219 36.832031 34.25 37.214844 33.1875 C 37.484375 32.429688 37.625 31.726563 37.679688 31.144531 C 37.703125 30.859375 37.707031 30.601563 37.6875 30.367188 C 37.667969 30.128906 37.6875 29.949219 37.464844 29.585938 C 37.003906 28.828125 36.480469 28.808594 35.933594 28.539063 C 35.632813 28.390625 34.769531 27.96875 33.90625 27.558594 C 33.039063 27.140625 32.292969 26.777344 31.828125 26.613281 C 31.535156 26.507813 31.179688 26.355469 30.667969 26.414063 C 30.15625 26.476563 29.648438 26.84375 29.355469 27.28125 C 29.070313 27.695313 27.949219 29.027344 27.601563 29.417969 C 27.597656 29.414063 27.628906 29.429688 27.496094 29.359375 C 27.070313 29.148438 26.550781 28.972656 25.777344 28.566406 C 25.011719 28.160156 24.050781 27.5625 23 26.632813 L 23 26.628906 C 21.429688 25.253906 20.332031 23.523438 19.988281 22.941406 C 20.011719 22.914063 19.984375 22.949219 20.035156 22.898438 L 20.039063 22.894531 C 20.390625 22.550781 20.707031 22.132813 20.96875 21.824219 C 21.34375 21.394531 21.511719 21.011719 21.691406 20.660156 C 22.046875 19.945313 21.847656 19.167969 21.640625 18.757813 L 21.640625 18.753906 C 21.65625 18.78125 21.53125 18.5 21.390625 18.183594 C 21.253906 17.855469 21.082031 17.4375 20.894531 16.992188 C 20.527344 16.105469 20.113281 15.105469 19.863281 14.519531 L 19.863281 14.515625 C 19.574219 13.828125 19.183594 13.332031 18.667969 13.089844 C 18.152344 12.851563 17.699219 12.921875 17.683594 12.917969 L 17.679688 12.917969 C 17.3125 12.902344 16.910156 12.898438 16.507813 12.898438 Z M 16.507813 14.882813 C 16.890625 14.882813 17.273438 14.886719 17.585938 14.898438 C 17.910156 14.914063 17.890625 14.917969 17.824219 14.890625 C 17.765625 14.859375 17.847656 14.851563 18.035156 15.289063 C 18.277344 15.863281 18.695313 16.863281 19.066406 17.761719 C 19.253906 18.207031 19.425781 18.625 19.566406 18.953125 C 19.707031 19.285156 19.777344 19.464844 19.867188 19.640625 L 19.867188 19.644531 L 19.871094 19.644531 C 19.957031 19.8125 19.949219 19.707031 19.917969 19.765625 C 19.710938 20.183594 19.683594 20.28125 19.46875 20.527344 C 19.148438 20.898438 18.816406 21.3125 18.644531 21.484375 C 18.492188 21.636719 18.21875 21.867188 18.042969 22.320313 C 17.871094 22.777344 17.953125 23.40625 18.230469 23.875 C 18.597656 24.5 19.804688 26.46875 21.6875 28.121094 C 22.871094 29.164063 23.972656 29.859375 24.851563 30.320313 C 25.734375 30.785156 26.453125 31.054688 26.613281 31.136719 C 26.996094 31.328125 27.410156 31.476563 27.898438 31.417969 C 28.382813 31.355469 28.796875 31.0625 29.0625 30.761719 L 29.0625 30.757813 C 29.421875 30.359375 30.472656 29.15625 30.976563 28.417969 C 31 28.425781 30.992188 28.417969 31.15625 28.480469 L 31.160156 28.480469 C 31.238281 28.511719 32.195313 28.9375 33.050781 29.34375 C 33.910156 29.753906 34.777344 30.175781 35.058594 30.316406 C 35.464844 30.519531 35.65625 30.648438 35.707031 30.648438 C 35.710938 30.738281 35.714844 30.832031 35.699219 30.976563 C 35.667969 31.375 35.558594 31.925781 35.347656 32.515625 C 35.242188 32.804688 34.699219 33.402344 34.007813 33.835938 C 33.324219 34.269531 32.488281 34.574219 32.179688 34.621094 C 31.25 34.757813 30.144531 34.808594 28.933594 34.425781 C 28.089844 34.164063 27.042969 33.824219 25.683594 33.246094 C 22.929688 32.066406 20.589844 30.070313 18.917969 28.308594 C 18.082031 27.429688 17.410156 26.613281 16.9375 25.992188 C 16.460938 25.371094 16.253906 25.050781 16.078125 24.820313 C 15.773438 24.414063 13.890625 21.796875 13.890625 19.4375 C 13.890625 16.941406 15.046875 15.960938 15.675781 15.289063 C 16.003906 14.929688 16.363281 14.882813 16.507813 14.882813 Z "/>
</g>
</svg>
