<?xml version="1.0" encoding="UTF-8"?>
<svg xmlns="http://www.w3.org/2000/svg" xmlns:xlink="http://www.w3.org/1999/xlink" width="25pt" height="25pt" viewBox="0 0 25 25" version="1.1">
<g id="surface1">
<path style=" stroke:none;fill-rule:nonzero;fill:#000000;fill-opacity:1;" d="M 14.804688 6.496094 C 14.417969 6.53125 14.089844 6.792969 13.960938 7.15625 C 13.835938 7.527344 13.933594 7.933594 14.214844 8.199219 L 17.421875 11.410156 L 4.960938 11.410156 C 4.929688 11.40625 4.898438 11.40625 4.867188 11.410156 C 4.320313 11.433594 3.898438 11.898438 3.921875 12.449219 C 3.945313 12.996094 4.410156 13.417969 4.960938 13.394531 L 17.421875 13.394531 L 14.199219 16.601563 C 13.808594 16.992188 13.808594 17.621094 14.199219 18.011719 C 14.589844 18.402344 15.21875 18.402344 15.609375 18.011719 L 20.507813 13.097656 L 21.222656 12.402344 L 20.507813 11.703125 L 15.609375 6.789063 C 15.398438 6.574219 15.105469 6.464844 14.804688 6.496094 Z "/>
</g>
</svg>
