<?xml version="1.0" encoding="UTF-8"?>
<svg xmlns="http://www.w3.org/2000/svg" xmlns:xlink="http://www.w3.org/1999/xlink" width="50pt" height="50pt" viewBox="0 0 50 50" version="1.1">
<g id="surface1">
<path style=" stroke:none;fill-rule:nonzero;fill:#FFFFFF;fill-opacity:1;" d="M 31.746094 10.914063 L 36.707031 10.914063 C 37.253906 10.914063 37.699219 10.46875 37.699219 9.921875 L 37.699219 3.234375 C 37.699219 2.714844 37.300781 2.285156 36.78125 2.246094 C 35.203125 2.136719 32.117188 1.984375 29.902344 1.984375 C 23.808594 1.984375 19.839844 5.632813 19.839844 12.269531 L 19.839844 18.847656 L 12.898438 18.847656 C 12.351563 18.847656 11.90625 19.292969 11.90625 19.839844 L 11.90625 26.785156 C 11.90625 27.332031 12.351563 27.777344 12.898438 27.777344 L 19.839844 27.777344 L 19.839844 46.628906 C 19.839844 47.171875 20.285156 47.617188 20.832031 47.617188 L 27.777344 47.617188 C 28.324219 47.617188 28.769531 47.171875 28.769531 46.628906 L 28.769531 27.777344 L 35.933594 27.777344 C 36.4375 27.777344 36.863281 27.398438 36.917969 26.894531 L 37.691406 19.949219 C 37.757813 19.363281 37.300781 18.847656 36.707031 18.847656 L 28.769531 18.847656 L 28.769531 13.890625 C 28.769531 12.246094 30.101563 10.914063 31.746094 10.914063 Z "/>
</g>
</svg>
