<?xml version="1.0" encoding="UTF-8"?>
<svg xmlns="http://www.w3.org/2000/svg" xmlns:xlink="http://www.w3.org/1999/xlink" width="25pt" height="25pt" viewBox="0 0 25 25" version="1.1">
<g id="surface1">
<path style=" stroke:none;fill-rule:nonzero;fill:#000000;fill-opacity:1;" d="M 12.292969 3.953125 C 11.78125 4.007813 11.398438 4.445313 11.410156 4.960938 L 11.410156 17.40625 L 8.136719 14.167969 C 7.949219 13.976563 7.691406 13.871094 7.425781 13.875 C 7.015625 13.871094 6.644531 14.121094 6.496094 14.5 C 6.34375 14.882813 6.441406 15.316406 6.742188 15.59375 L 11.703125 20.492188 L 12.402344 21.191406 L 13.097656 20.492188 L 18.058594 15.59375 C 18.453125 15.207031 18.460938 14.578125 18.074219 14.183594 C 17.6875 13.789063 17.058594 13.78125 16.664063 14.167969 L 13.394531 17.40625 L 13.394531 4.960938 C 13.398438 4.691406 13.292969 4.433594 13.101563 4.242188 C 12.914063 4.054688 12.65625 3.949219 12.386719 3.953125 C 12.355469 3.949219 12.324219 3.949219 12.292969 3.953125 Z "/>
</g>
</svg>
