<?xml version="1.0" encoding="UTF-8"?>
<svg xmlns="http://www.w3.org/2000/svg" xmlns:xlink="http://www.w3.org/1999/xlink" width="50pt" height="50pt" viewBox="0 0 50 50" version="1.1">
<g id="surface1">
<path style=" stroke:none;fill-rule:nonzero;fill:#003B9F;fill-opacity:1;" d="M 29.605469 12.988281 C 28.835938 13.0625 28.175781 13.582031 27.925781 14.316406 C 27.667969 15.050781 27.867188 15.867188 28.429688 16.398438 L 34.847656 22.816406 L 9.921875 22.816406 C 9.859375 22.8125 9.796875 22.8125 9.734375 22.816406 C 8.636719 22.867188 7.792969 23.796875 7.84375 24.894531 C 7.894531 25.992188 8.824219 26.835938 9.921875 26.785156 L 34.847656 26.785156 L 28.398438 33.203125 C 27.617188 33.980469 27.617188 35.246094 28.398438 36.023438 C 29.175781 36.804688 30.441406 36.804688 31.21875 36.023438 L 41.015625 26.195313 L 42.441406 24.800781 L 41.015625 23.40625 L 31.21875 13.578125 C 30.800781 13.148438 30.207031 12.933594 29.605469 12.988281 Z "/>
</g>
</svg>
